<svg width="30" height="27" viewBox="0 0 30 27" fill="none" xmlns="http://www.w3.org/2000/svg">
<path d="M27 13.5V5.375H30V15.125H27M27 21.625H30V18.375H27M12 15.125C16.005 15.125 24 17.3025 24 21.625V26.5H0V21.625C0 17.3025 7.995 15.125 12 15.125ZM12 0.5C13.5913 0.5 15.1174 1.18482 16.2426 2.40381C17.3679 3.62279 18 5.27609 18 7C18 8.72391 17.3679 10.3772 16.2426 11.5962C15.1174 12.8152 13.5913 13.5 12 13.5C10.4087 13.5 8.88258 12.8152 7.75736 11.5962C6.63214 10.3772 6 8.72391 6 7C6 5.27609 6.63214 3.62279 7.75736 2.40381C8.88258 1.18482 10.4087 0.5 12 0.5ZM12 18.2125C7.545 18.2125 2.85 20.585 2.85 21.625V23.4125H21.15V21.625C21.15 20.585 16.455 18.2125 12 18.2125ZM12 3.5875C11.1646 3.5875 10.3634 3.94703 9.77261 4.587C9.18187 5.22697 8.85 6.09495 8.85 7C8.85 7.90505 9.18187 8.77303 9.77261 9.413C10.3634 10.053 11.1646 10.4125 12 10.4125C12.8354 10.4125 13.6366 10.053 14.2274 9.413C14.8181 8.77303 15.15 7.90505 15.15 7C15.15 6.09495 14.8181 5.22697 14.2274 4.587C13.6366 3.94703 12.8354 3.5875 12 3.5875Z" fill="#202222"/>
</svg>
