<svg width="32" height="23" viewBox="0 0 32 23" fill="none" xmlns="http://www.w3.org/2000/svg">
<path d="M28.4443 11.5V4.32502H31.5554V12.935H28.4443M28.4443 18.675H31.5554V15.805H28.4443M12.8888 12.935C17.0421 12.935 25.3332 14.8579 25.3332 18.675V22.98H0.444336V18.675C0.444336 14.8579 8.73543 12.935 12.8888 12.935ZM12.8888 0.0200195C14.539 0.0200195 16.1216 0.624768 17.2885 1.70123C18.4554 2.77769 19.111 4.23768 19.111 5.76002C19.111 7.28236 18.4554 8.74235 17.2885 9.81881C16.1216 10.8953 14.539 11.5 12.8888 11.5C11.2385 11.5 9.65588 10.8953 8.48899 9.81881C7.3221 8.74235 6.66654 7.28236 6.66654 5.76002C6.66654 4.23768 7.3221 2.77769 8.48899 1.70123C9.65588 0.624768 11.2385 0.0200195 12.8888 0.0200195ZM12.8888 15.6615C8.26876 15.6615 3.39989 17.7566 3.39989 18.675V20.2535H22.3776V18.675C22.3776 17.7566 17.5087 15.6615 12.8888 15.6615ZM12.8888 2.74652C12.0224 2.74652 11.1915 3.06401 10.5789 3.62915C9.96626 4.19429 9.62209 4.96079 9.62209 5.76002C9.62209 6.55925 9.96626 7.32575 10.5789 7.89089C11.1915 8.45603 12.0224 8.77352 12.8888 8.77352C13.7551 8.77352 14.586 8.45603 15.1986 7.89089C15.8112 7.32575 16.1554 6.55925 16.1554 5.76002C16.1554 4.96079 15.8112 4.19429 15.1986 3.62915C14.586 3.06401 13.7551 2.74652 12.8888 2.74652Z" fill="white"/>
</svg>
